<?xml version="1.0" encoding="utf-8"?>
<!-- Generator: Adobe Illustrator 25.4.1, SVG Export Plug-In . SVG Version: 6.00 Build 0)  -->
<svg version="1.1" id="Layer_1" xmlns="http://www.w3.org/2000/svg" xmlns:xlink="http://www.w3.org/1999/xlink" x="0px" y="0px"
	 viewBox="0 0 437.62 262.93" style="enable-background:new 0 0 437.62 262.93;" xml:space="preserve">
<style type="text/css">
	.st0{opacity:0.71;}
	.st1{fill:#CF92C1;}
	.st2{fill:#C1E8FB;}
	.st3{fill:#A6D7B6;}
</style>
<g class="st0">
	<path class="st1" d="M65.82,226.33c13.6,7.49,30.74,8.15,44.87,1.72c12.64-5.75,22.25-16.41,33.31-24.8
		c17.25-13.09,38.55-20.77,60.18-21.69c10.72-0.46,21.87,0.63,31.82-3.38c17.96-7.23,25.75-28,30.68-46.72
		c2.49-9.44,4.75-19.52,1.77-28.81c-4.16-13-17.44-20.89-30.5-24.87c-13.06-3.99-27-5.35-39.31-11.26
		c-24.2-11.63-38.89-39.26-64.55-47.15c-10.84-3.33-22.48-2.69-33.76-1.42c-11.86,1.33-23.86,3.39-34.5,8.79
		s-19.88,14.6-22.83,26.16c-6.25,24.5-0.49,38.98-5.86,63.68c-3.49,16.03-10.13,17.28-15.92,43.22c-0.7,3.12-0.44,7.18,0.2,14.88
		c0.3,3.57,0.48,7.12,1.84,10.43C30.22,201.92,49.56,218.17,65.82,226.33"/>
	<g>
		<path class="st1" d="M64.56,228.49c11.48,6.26,25.14,8.02,37.85,5.02c12.96-3.06,23.17-11.49,33.04-19.98
			c4.96-4.26,9.93-8.47,15.39-12.08c5.4-3.57,11.13-6.66,17.1-9.19c12.17-5.16,25.28-7.95,38.49-8.29
			c7.11-0.18,14.22,0.05,21.27-1.02c6.01-0.92,11.82-3.04,16.78-6.59c9.16-6.55,14.9-16.49,19.01-26.76
			c2.1-5.25,3.77-10.66,5.25-16.12c1.81-6.71,3.54-13.59,3.64-20.58c0.09-6.57-1.51-13.1-5.19-18.6c-3.2-4.79-7.56-8.65-12.41-11.72
			c-11-6.97-23.85-9.21-36.31-12.18c-6.67-1.59-13.36-3.42-19.51-6.52c-4.77-2.4-9.21-5.42-13.37-8.77
			c-17.18-13.86-31.41-33.67-53.97-39.02c-7.18-1.7-14.62-1.92-21.96-1.49c-7.1,0.42-14.23,1.27-21.24,2.49
			c-13.03,2.27-25.99,6.69-35.86,15.82c-4.36,4.04-7.97,8.92-10.29,14.41c-2.61,6.19-3.62,13.17-4.32,19.82
			c-1.29,12.23-0.16,24.55-1.33,36.78c-0.56,5.8-1.49,11.68-3.28,17.24c-0.29,0.89-0.6,1.78-0.94,2.65
			c-0.42,1.09-0.45,1.15-0.9,2.14c-0.69,1.54-1.45,3.04-2.22,4.54c-1.8,3.52-3.56,7.04-5.06,10.7c-2.24,5.49-3.87,11.21-5.19,16.98
			c-1.11,4.83-0.65,9.72-0.26,14.61c0.3,3.73,0.41,7.62,1.47,11.23c0.85,2.87,2.28,5.63,3.78,8.21
			c6.31,10.88,15.79,19.86,25.86,27.23C54.54,222.84,59.43,225.9,64.56,228.49c2.87,1.45,5.4-2.87,2.52-4.32
			c-10.64-5.37-20.42-12.66-28.64-21.29c-4-4.2-7.62-8.77-10.46-13.83c-1.45-2.58-2.75-5.24-3.34-8.15
			c-0.68-3.35-0.77-6.86-1.02-10.27c-0.18-2.4-0.35-4.81-0.28-7.22c0.01-0.49,0.04-0.98,0.08-1.48c0.02-0.19,0.04-0.38,0.06-0.57
			c0.05-0.43-0.11,0.59,0.02-0.09c0.28-1.51,0.65-3.01,1.03-4.51c1.25-5.03,2.92-10.45,4.84-14.97c2.86-6.72,6.84-12.91,9-19.93
			c3.56-11.55,3.88-23.89,3.9-35.87c0.01-5.88,0.03-11.76,0.58-17.62c0.59-6.24,1.53-12.88,3.86-18.74
			c4.24-10.62,14.02-18.29,24.33-22.57c6.27-2.6,12.94-4.19,19.63-5.31c6.74-1.13,13.59-1.91,20.42-2.23
			c7.05-0.34,14.18-0.04,21.02,1.85c5.09,1.41,9.84,3.69,14.28,6.51c9.05,5.74,16.65,13.43,24.4,20.75
			c7.81,7.37,15.98,14.7,25.65,19.57c12.29,6.18,26.06,7.71,39.13,11.47c10.26,2.95,21.17,8,27.3,17.16
			c7.39,11.05,4.04,24.47,0.77,36.36c-2.84,10.33-6.42,20.73-12.65,29.55c-2.82,3.99-6.31,7.61-10.43,10.27
			c-5.07,3.27-10.86,4.88-16.83,5.45c-6.78,0.65-13.6,0.3-20.4,0.64c-6.48,0.33-12.94,1.24-19.26,2.71
			c-12.68,2.94-24.9,8.16-35.76,15.33c-10.53,6.96-19.19,16.26-29.56,23.4c-5.18,3.56-10.75,6.41-16.87,7.96
			c-5.9,1.49-12.09,1.84-18.13,1.07c-5.83-0.74-11.51-2.58-16.66-5.39C64.26,222.63,61.73,226.95,64.56,228.49L64.56,228.49z"/>
	</g>
</g>
<g class="st0">
	<path class="st2" d="M185.43,109.94c-5.66,10.67-21.9,17.92-27.56,28.59c-4.16,7.86-8.71,25.75-5.73,34.12
		c5.1,14.34,18.87,13.9,27.99,20.1c11.76,8,24.89,14,38.64,17.66c4.53,1.21,9.26,2.22,13.04,4.99c3.94,2.89,6.38,7.33,9.43,11.15
		c7.07,8.81,18.01,14.39,29.29,14.93c11.28,0.54,22.71-3.96,30.59-12.05c11.72-12.03,14.95-30.33,26.24-42.76
		c12.06-13.29,30.83-17.48,47.87-23.12c17.04-5.64,35.25-15.46,39.73-32.84c4.03-15.62-4.72-31.76-15.5-43.77
		c-7.54-8.41-16.24-15.78-25.76-21.84c-10-6.37-20.88-11.29-32.02-15.36c-18.4-6.72-37.61-11.17-57.09-13.24
		c-15.14-1.6-30.81-1.7-45.14,3.42c-14.09,5.04-25.94,14.77-37.47,24.31c-5.61,4.64-11.36,9.46-14.75,15.9
		C179.58,94.68,191.84,94.8,185.43,109.94"/>
	<g>
		<path class="st2" d="M183.27,108.68c-2.47,4.57-6.51,8.07-10.44,11.36c-4.21,3.52-8.64,6.84-12.4,10.86
			c-3.47,3.72-5.71,7.91-7.43,12.67c-1.86,5.13-3.14,10.47-3.85,15.87c-0.61,4.65-0.95,9.78,0.71,14.26
			c1.86,4.99,5.06,9.09,9.51,12.02c3.82,2.51,8.22,3.98,12.44,5.66c1.86,0.74,3.74,1.55,5.57,2.62c2.66,1.55,5.16,3.38,7.8,4.96
			c5.96,3.56,12.22,6.6,18.67,9.16c6.33,2.52,12.84,4.16,19.36,6.09c2.93,0.87,5.84,1.99,8.15,4.05c2.32,2.07,4.06,4.65,5.88,7.14
			c3.72,5.12,8.14,9.46,13.62,12.69c10.87,6.4,24.25,7.71,36.1,3.32c5.96-2.21,11.46-5.64,15.91-10.21
			c4.25-4.36,7.5-9.59,10.3-14.96c5.49-10.5,9.65-22.13,18.49-30.4c8.65-8.09,20.16-12.21,31.24-15.76
			c11.09-3.56,22.32-6.74,32.44-12.66c9.51-5.56,18.04-13.53,21.49-24.26c4.03-12.53-0.14-25.81-6.91-36.55
			c-7.18-11.39-17.3-21-28.09-28.95c-11.42-8.4-24.25-14.61-37.48-19.58c-13.72-5.16-27.93-9.04-42.36-11.61
			c-14.06-2.5-28.64-4.27-42.93-3.1c-7.05,0.58-14.07,1.87-20.73,4.3c-6.36,2.32-12.33,5.54-17.96,9.28
			c-5.67,3.76-11.02,8-16.28,12.31c-5,4.1-10.25,8.11-14.47,13.05c-3.71,4.34-6.94,9.68-7.47,15.48c-0.32,3.54,1.03,6.63,2.03,9.93
			c0.24,0.8,0.44,1.6,0.57,2.43c-0.07-0.44,0.06,0.62,0.06,0.8c0.02,0.44,0.03,0.88,0.01,1.32c-0.08,2.26-0.89,4.75-1.83,7.02
			c-0.52,1.25,0.56,2.75,1.75,3.08c1.44,0.4,2.55-0.49,3.08-1.75c1.78-4.28,2.6-8.81,1.43-13.36c-0.39-1.53-0.99-2.99-1.46-4.5
			c-0.22-0.69-0.39-1.38-0.54-2.08c0,0.01-0.12-0.7-0.06-0.33c0.05,0.38-0.03-0.36-0.03-0.35c-0.03-0.48-0.05-0.96-0.04-1.44
			c0.06-1.78,0.7-3.92,1.61-5.83c1.3-2.75,3-5.26,5.02-7.53c4.22-4.75,9.35-8.68,14.25-12.68c9.95-8.14,20.51-16.16,32.79-20.4
			c12.97-4.48,26.91-4.63,40.44-3.42c14.11,1.26,28.12,3.9,41.77,7.69c13.33,3.71,26.5,8.44,38.81,14.79
			c11.86,6.13,22.71,13.96,32.07,23.49c8.69,8.85,16.62,19.5,19,31.94c1.09,5.69,0.63,11.56-1.46,16.97
			c-1.81,4.67-4.93,8.76-8.54,12.18c-7.68,7.26-17.69,11.82-27.6,15.17c-11.21,3.78-22.78,6.69-33.4,12.03
			c-5.2,2.61-10.12,5.87-14.3,9.93c-4.24,4.1-7.56,9.05-10.37,14.2c-5.46,10.02-9.27,21.36-17.15,29.86
			c-8.08,8.72-20.17,13.21-31.99,11.86c-5.71-0.65-11.26-2.78-16.07-5.88c-2.43-1.56-4.65-3.4-6.66-5.49
			c-2.08-2.16-3.77-4.6-5.54-7.01c-1.87-2.55-3.84-4.99-6.38-6.91c-2.62-1.98-5.73-3.19-8.86-4.12c-6.29-1.86-12.58-3.43-18.71-5.83
			c-6.13-2.4-12.06-5.33-17.72-8.68c-2.71-1.6-5.26-3.44-7.96-5.05c-1.88-1.12-3.88-1.99-5.9-2.82c-3.99-1.64-7.91-2.87-11.59-5.11
			c-3.8-2.31-6.79-5.82-8.21-10.14c-1.32-4.01-0.88-8.81-0.19-13.12c0.81-5.1,2.14-10.15,4-14.97c1.57-4.07,3.98-7.63,7.19-10.78
			c3.82-3.74,8.13-6.94,12.19-10.42c3.79-3.25,7.52-6.83,9.92-11.27C189.12,108.37,184.8,105.84,183.27,108.68L183.27,108.68z"/>
	</g>
</g>
<g>
	<path class="st3" d="M96.44,132.98c0,3.6-1.31,6.66-3.92,9.18c-2.62,2.52-5.74,3.78-9.37,3.78c-2.09,0-4.65-0.74-7.67-2.23
		c-0.8-0.43-1.51-0.65-2.12-0.65c-0.86,0-1.51,0.59-1.94,1.77c-0.25,0.74-0.59,1.12-1.02,1.12c-0.43,0-0.65-0.25-0.65-0.74
		c0-0.31,0-0.68,0-1.12c0-1.24,0-3.07,0-5.49c0-0.19,0-0.93,0-2.23c0-1.3,0-2.17,0-2.6v-1.02c0-0.68,0.22-1.02,0.65-1.02
		c0.5,0,0.77,0.34,0.84,1.03c0.37,2.87,1.18,5.12,2.42,6.75c2.48,3.25,5.8,4.87,9.95,4.87c2.23,0,4.03-0.65,5.39-1.96
		c1.36-1.3,2.05-3.04,2.05-5.22c0-2.42-0.78-4.35-2.33-5.78c-0.87-0.81-1.66-1.38-2.37-1.73c-0.71-0.34-2.81-1.17-6.28-2.47
		c-6.88-2.61-10.32-6.52-10.32-11.74c0-3.48,1.17-6.4,3.5-8.76c2.34-2.36,5.23-3.54,8.67-3.54c1.23,0,3.07,0.37,5.53,1.12
		c0.61,0.19,1.17,0.28,1.66,0.28c1.29,0,2.09-0.62,2.4-1.86c0.18-0.62,0.46-0.93,0.83-0.93c0.43,0,0.65,0.25,0.65,0.74
		c0,0.06,0,0.25,0,0.56v3.91c-0.06,1.49,0.09,3.88,0.46,7.16v0.19c0,0.5-0.25,0.74-0.74,0.74c-0.37,0-0.84-0.94-1.4-2.81
		c-0.68-2.25-1.88-4.07-3.58-5.44c-1.71-1.38-3.67-2.06-5.91-2.06c-2.11,0-3.84,0.65-5.21,1.96c-1.36,1.3-2.05,2.95-2.05,4.94
		c0,3.11,2.08,5.47,6.23,7.08c6.45,2.55,10.54,4.66,12.28,6.34C95.32,127.23,96.44,129.87,96.44,132.98z"/>
	<path class="st3" d="M127.04,139.33c0,0.56-0.78,1.55-2.33,2.98c-2.67,2.42-5.83,3.63-9.49,3.63c-3.41,0-5.98-0.87-7.72-2.6
		c-0.99-0.99-1.49-3.9-1.49-8.72v-27.65c-0.06-0.62-0.4-0.96-1.02-1.02h-3.53c-1.36,0-2.05-0.22-2.05-0.65
		c0-0.43,0.34-0.68,1.02-0.74c4.8-0.44,8.56-2.82,11.27-7.15c0.37-0.56,0.83-0.85,1.39-0.85c0.43,0,0.65,0.22,0.65,0.65v0.37
		c0,0.31,0,0.84,0,1.58c0,2.6,0.12,4.28,0.37,5.02c0.56,0.12,1.49,0.19,2.79,0.19c3.41,0,5.67-0.15,6.79-0.46
		c0.25-0.06,0.46-0.09,0.65-0.09c0.5,0,0.74,0.27,0.74,0.8c0,0.89-2.51,1.34-7.53,1.34c-0.87,0-2.14,0-3.81,0v17.21
		c0,8.68,0.22,14.12,0.65,16.32c0.43,2.2,1.86,3.3,4.28,3.3c2.05,0,4.34-1.15,6.88-3.44c0.25-0.31,0.53-0.47,0.84-0.47
		C126.82,138.87,127.04,139.03,127.04,139.33z"/>
	<path class="st3" d="M165.17,140.64c0,1.06-1.1,2.16-3.29,3.3s-4.3,1.72-6.34,1.72c-4.26,0-6.48-2.2-6.66-6.6
		c-2.34,4.59-5.98,6.88-10.92,6.88c-2.65,0-4.84-0.79-6.57-2.37c-1.73-1.58-2.59-3.61-2.59-6.09c0-5.08,3.04-9.11,9.12-12.09
		c2.09-0.99,5.71-1.98,10.87-2.98v-2.32c0-5.46-0.28-9.05-0.84-10.79c-0.99-3.16-3.22-4.74-6.7-4.74c-2.17,0-3.98,0.59-5.44,1.77
		c-1.46,1.18-2.19,2.67-2.19,4.46c0,0.5,0.39,0.74,1.16,0.74c0.77,0,1.47,0.37,2.09,1.12c0.62,0.74,0.93,1.58,0.93,2.51
		c0,2.73-1.36,4.09-4.09,4.09c-1.43,0-2.6-0.48-3.53-1.44c-0.93-0.96-1.4-2.19-1.4-3.67c0-2.91,1.15-5.42,3.44-7.53
		c2.54-2.29,6.08-3.44,10.6-3.44c6.82,0,11,1.86,12.55,5.58c0.56,1.43,0.84,4.25,0.84,8.46v17.39c0,2.85,0.03,4.53,0.09,5.02
		c0.31,2.23,1.21,3.35,2.7,3.35c1.74,0,3.16-0.62,4.28-1.86c0.62-0.68,1.08-1.02,1.4-1.02
		C165.01,140.08,165.17,140.26,165.17,140.64z M148.8,130.78v-6.79c-4.58,1.06-7.87,2.43-9.85,4.14c-1.99,1.71-2.98,3.98-2.98,6.84
		c0,1.98,0.57,3.61,1.7,4.88c1.13,1.27,2.55,1.91,4.26,1.91c2.63,0,4.73-1.49,6.32-4.46C148.61,136.61,148.8,134.44,148.8,130.78z"
		/>
	<path class="st3" d="M193.53,109.67c0,1.43-0.43,2.6-1.3,3.53c-0.87,0.93-1.98,1.4-3.35,1.4c-1.12,0-2.05-0.33-2.79-0.98
		c-0.74-0.65-1.12-1.47-1.12-2.46c0-0.87,0.28-1.61,0.84-2.23c0.56-0.62,0.84-1.05,0.84-1.3c0-0.93-0.68-1.4-2.05-1.4
		c-1.74,0-3.22,1.08-4.46,3.24c-1.43,2.53-2.14,7.22-2.14,14.07v18.32c0,0.74,0.26,1.2,0.79,1.39c0.53,0.19,2.12,0.31,4.79,0.37
		c0.68,0.12,1.02,0.37,1.02,0.74c0,0.43-0.4,0.65-1.21,0.65c-1.43,0-2.76,0-4,0c-1.24,0-3.6,0-7.07,0c-1.8,0-3.1,0-3.91,0
		c-0.81,0-1.83,0-3.07,0c-0.99,0-1.49-0.19-1.49-0.56s0.4-0.56,1.21-0.56h1.3c2.11,0,3.35-0.25,3.72-0.75
		c0.12-0.25,0.19-1.4,0.19-3.46v-25.7c0-3.43-0.51-5.41-1.53-5.94c-1.02-0.53-2.65-0.83-4.88-0.89c-0.74,0-1.12-0.22-1.12-0.65
		c0-0.43,0.31-0.65,0.93-0.65h0.65c0.93,0,1.86,0.05,2.79,0.14c0.93,0.09,1.33,0.14,1.21,0.14c2.29,0,4.84-0.65,7.63-1.95l1.21-0.56
		l0.74-0.28c0.25,1.49,0.37,2.98,0.37,4.46v1.86c1.98-4.22,4.77-6.32,8.37-6.32c1.98,0,3.63,0.6,4.93,1.81
		C192.88,106.37,193.53,107.87,193.53,109.67z"/>
	<path class="st3" d="M240.96,144.17c0,0.44-1.15,0.65-3.44,0.65c-1.8,0-3.47-0.03-5.02-0.09c-3.16-0.12-5.33-0.19-6.51-0.19
		c-0.81,0-2.03,0.05-3.67,0.14c-1.64,0.09-2.87,0.14-3.67,0.14c-0.56,0-0.84-0.21-0.84-0.65c0-0.49,0.59-0.74,1.77-0.74
		c2.98,0,4.46-0.49,4.46-1.48c0-0.86-5.21-7.1-15.62-18.71v18.88c0.06,0.93,0.94,1.36,2.64,1.3h2.55c0.82,0,1.23,0.22,1.23,0.66
		c0,0.49-0.68,0.74-2.05,0.74c0.12,0-0.03,0-0.46,0c-0.43,0-1.18,0-2.23,0c-1.49,0-3.5,0-6.04,0h-7.25c-1.49,0-2.23-0.26-2.23-0.79
		c0-0.33,0.14-0.53,0.42-0.59c0.28-0.07,1.35-0.13,3.21-0.2c1.49-0.06,2.26-0.4,2.32-1.02c0.12-0.43,0.19-2.04,0.19-4.83V91.98
		c0-4.89-0.03-7.43-0.09-7.61c-0.12-0.43-1.02-0.65-2.7-0.65h-0.93c-0.43,0-0.93,0-1.49,0c-0.68,0-1.02-0.23-1.02-0.7
		c0-0.47,0.71-0.7,2.14-0.7c2.98-0.06,6.08-0.96,9.3-2.7c0.74-0.43,1.24-0.65,1.49-0.65c0.68,0,1.02,2.57,1.02,7.72v34.32
		c10.04-8.94,15.07-13.87,15.07-14.79c0-0.37-1.21-0.55-3.63-0.55c-0.06,0-0.25,0-0.56,0c-0.37,0-0.84,0-1.39,0h-0.93
		c-1.12,0-1.67-0.25-1.67-0.74c0-0.56,0.96-0.84,2.88-0.84h3.81h3.44h5.77c2.23,0,3.53,0.03,3.91,0.09
		c0.37,0.06,0.56,0.28,0.56,0.65c0,0.44-1.46,0.68-4.37,0.75c-2.11,0.06-3.38,0.22-3.81,0.47c-0.74,0.44-1.46,1-2.14,1.68
		L213.71,119c8.62,9.45,14.72,16.38,18.32,20.79c1.49,1.8,2.67,2.89,3.53,3.26c0.68,0.31,2.2,0.44,4.56,0.37
		C240.68,143.42,240.96,143.67,240.96,144.17z"/>
	<path class="st3" d="M294.43,140.64c0,1.06-1.1,2.16-3.29,3.3c-2.19,1.15-4.3,1.72-6.34,1.72c-4.26,0-6.48-2.2-6.66-6.6
		c-2.34,4.59-5.98,6.88-10.92,6.88c-2.65,0-4.84-0.79-6.57-2.37c-1.73-1.58-2.59-3.61-2.59-6.09c0-5.08,3.04-9.11,9.12-12.09
		c2.09-0.99,5.71-1.98,10.87-2.98v-2.32c0-5.46-0.28-9.05-0.84-10.79c-0.99-3.16-3.22-4.74-6.7-4.74c-2.17,0-3.98,0.59-5.44,1.77
		c-1.46,1.18-2.19,2.67-2.19,4.46c0,0.5,0.39,0.74,1.16,0.74c0.77,0,1.47,0.37,2.09,1.12c0.62,0.74,0.93,1.58,0.93,2.51
		c0,2.73-1.37,4.09-4.09,4.09c-1.43,0-2.6-0.48-3.53-1.44c-0.93-0.96-1.4-2.19-1.4-3.67c0-2.91,1.15-5.42,3.44-7.53
		c2.54-2.29,6.08-3.44,10.6-3.44c6.82,0,11,1.86,12.55,5.58c0.56,1.43,0.84,4.25,0.84,8.46v17.39c0,2.85,0.03,4.53,0.09,5.02
		c0.31,2.23,1.21,3.35,2.7,3.35c1.74,0,3.16-0.62,4.28-1.86c0.62-0.68,1.08-1.02,1.4-1.02
		C294.28,140.08,294.43,140.26,294.43,140.64z M278.07,130.78v-6.79c-4.58,1.06-7.87,2.43-9.86,4.14c-1.99,1.71-2.98,3.98-2.98,6.84
		c0,1.98,0.57,3.61,1.7,4.88c1.13,1.27,2.55,1.91,4.26,1.91c2.63,0,4.73-1.49,6.32-4.46C277.88,136.61,278.07,134.44,278.07,130.78z
		"/>
	<path class="st3" d="M322.8,109.67c0,1.43-0.43,2.6-1.3,3.53c-0.87,0.93-1.98,1.4-3.35,1.4c-1.12,0-2.05-0.33-2.79-0.98
		c-0.74-0.65-1.12-1.47-1.12-2.46c0-0.87,0.28-1.61,0.84-2.23c0.56-0.62,0.84-1.05,0.84-1.3c0-0.93-0.68-1.4-2.05-1.4
		c-1.74,0-3.22,1.08-4.46,3.24c-1.43,2.53-2.14,7.22-2.14,14.07v18.32c0,0.74,0.26,1.2,0.79,1.39c0.53,0.19,2.12,0.31,4.79,0.37
		c0.68,0.12,1.02,0.37,1.02,0.74c0,0.43-0.4,0.65-1.21,0.65c-1.43,0-2.76,0-4,0c-1.24,0-3.6,0-7.07,0c-1.8,0-3.1,0-3.91,0
		c-0.81,0-1.83,0-3.07,0c-0.99,0-1.49-0.19-1.49-0.56s0.4-0.56,1.21-0.56h1.3c2.11,0,3.35-0.25,3.72-0.75
		c0.12-0.25,0.19-1.4,0.19-3.46v-25.7c0-3.43-0.51-5.41-1.53-5.94c-1.02-0.53-2.65-0.83-4.88-0.89c-0.74,0-1.12-0.22-1.12-0.65
		c0-0.43,0.31-0.65,0.93-0.65h0.65c0.93,0,1.86,0.05,2.79,0.14c0.93,0.09,1.33,0.14,1.21,0.14c2.29,0,4.84-0.65,7.63-1.95l1.21-0.56
		l0.74-0.28c0.25,1.49,0.37,2.98,0.37,4.46v1.86c1.98-4.22,4.77-6.32,8.37-6.32c1.98,0,3.63,0.6,4.93,1.81
		C322.15,106.37,322.8,107.87,322.8,109.67z"/>
	<path class="st3" d="M351.07,139.33c0,0.56-0.78,1.55-2.33,2.98c-2.67,2.42-5.83,3.63-9.49,3.63c-3.41,0-5.98-0.87-7.72-2.6
		c-0.99-0.99-1.49-3.9-1.49-8.72v-27.65c-0.06-0.62-0.4-0.96-1.02-1.02h-3.53c-1.36,0-2.05-0.22-2.05-0.65
		c0-0.43,0.34-0.68,1.02-0.74c4.8-0.44,8.56-2.82,11.27-7.15c0.37-0.56,0.83-0.85,1.39-0.85c0.43,0,0.65,0.22,0.65,0.65v0.37
		c0,0.31,0,0.84,0,1.58c0,2.6,0.12,4.28,0.37,5.02c0.56,0.12,1.49,0.19,2.79,0.19c3.41,0,5.67-0.15,6.79-0.46
		c0.25-0.06,0.46-0.09,0.65-0.09c0.5,0,0.74,0.27,0.74,0.8c0,0.89-2.51,1.34-7.53,1.34c-0.87,0-2.14,0-3.81,0v17.21
		c0,8.68,0.22,14.12,0.65,16.32c0.43,2.2,1.86,3.3,4.28,3.3c2.05,0,4.34-1.15,6.88-3.44c0.25-0.31,0.53-0.47,0.84-0.47
		C350.85,138.87,351.07,139.03,351.07,139.33z"/>
</g>
</svg>
