<?xml version="1.0" encoding="utf-8"?>
<!-- Generator: Adobe Illustrator 25.4.1, SVG Export Plug-In . SVG Version: 6.00 Build 0)  -->
<svg version="1.1" id="Layer_1" xmlns="http://www.w3.org/2000/svg" xmlns:xlink="http://www.w3.org/1999/xlink" x="0px" y="0px"
	 viewBox="0 0 407.5 235.3" style="enable-background:new 0 0 407.5 235.3;" xml:space="preserve">
<style type="text/css">
	.st0{opacity:0.71;}
	.st1{fill:#CF92C1;}
	.st2{fill:#C1E8FB;}
	.st3{fill:#4D4D4F;}
</style>
<g class="st0">
	<path class="st1" d="M51.6,214.3c13.6,7.5,30.7,8.1,44.9,1.7c12.6-5.8,22.2-16.4,33.3-24.8c17.2-13.1,38.6-20.8,60.2-21.7
		c10.7-0.5,21.9,0.6,31.8-3.4c18-7.2,25.8-28,30.7-46.7c2.5-9.4,4.7-19.5,1.8-28.8c-4.2-13-17.4-20.9-30.5-24.9
		c-13.1-4-27-5.3-39.3-11.3c-24.2-11.6-38.9-39.3-64.6-47.2C109,4,97.4,4.6,86.1,5.9c-11.9,1.3-23.9,3.4-34.5,8.8
		S31.7,29.3,28.8,40.8c-6.2,24.5-0.5,39-5.9,63.7c-3.5,16-10.1,17.3-15.9,43.2c-0.7,3.1-0.4,7.2,0.2,14.9c0.3,3.6,0.5,7.1,1.8,10.4
		C16,189.9,35.3,206.1,51.6,214.3"/>
	<g>
		<path class="st1" d="M50.3,216.4c11.5,6.3,25.1,8,37.8,5c13-3.1,23.2-11.5,33-20c5-4.3,9.9-8.5,15.4-12.1
			c5.4-3.6,11.1-6.7,17.1-9.2c12.2-5.2,25.3-7.9,38.5-8.3c7.1-0.2,14.2,0.1,21.3-1c6-0.9,11.8-3,16.8-6.6c9.2-6.6,14.9-16.5,19-26.8
			c2.1-5.2,3.8-10.7,5.2-16.1c1.8-6.7,3.5-13.6,3.6-20.6c0.1-6.6-1.5-13.1-5.2-18.6c-3.2-4.8-7.6-8.7-12.4-11.7
			c-11-7-23.9-9.2-36.3-12.2c-6.7-1.6-13.4-3.4-19.5-6.5c-4.8-2.4-9.2-5.4-13.4-8.8c-17.2-13.9-31.4-33.7-54-39
			c-7.2-1.7-14.6-1.9-22-1.5C88.3,3,81.2,3.8,74.2,5c-13,2.3-26,6.7-35.9,15.8c-4.4,4-8,8.9-10.3,14.4c-2.6,6.2-3.6,13.2-4.3,19.8
			c-1.3,12.2-0.2,24.5-1.3,36.8c-0.6,5.8-1.5,11.7-3.3,17.2c-0.3,0.9-0.6,1.8-0.9,2.7c-0.4,1.1-0.5,1.2-0.9,2.1
			c-0.7,1.5-1.5,3-2.2,4.5c-1.8,3.5-3.6,7-5.1,10.7c-2.2,5.5-3.9,11.2-5.2,17c-1.1,4.8-0.6,9.7-0.3,14.6c0.3,3.7,0.4,7.6,1.5,11.2
			c0.9,2.9,2.3,5.6,3.8,8.2c6.3,10.9,15.8,19.9,25.9,27.2C40.3,210.8,45.2,213.8,50.3,216.4c2.9,1.4,5.4-2.9,2.5-4.3
			c-10.6-5.4-20.4-12.7-28.6-21.3c-4-4.2-7.6-8.8-10.5-13.8c-1.5-2.6-2.8-5.2-3.3-8.1c-0.7-3.4-0.8-6.9-1-10.3
			c-0.2-2.4-0.4-4.8-0.3-7.2c0-0.5,0-1,0.1-1.5c0-0.2,0-0.4,0.1-0.6c0-0.4-0.1,0.6,0-0.1c0.3-1.5,0.6-3,1-4.5c1.2-5,2.9-10.4,4.8-15
			c2.9-6.7,6.8-12.9,9-19.9C27.7,98.2,28,85.9,28,73.9c0-5.9,0-11.8,0.6-17.6c0.6-6.2,1.5-12.9,3.9-18.7c4.2-10.6,14-18.3,24.3-22.6
			c6.3-2.6,12.9-4.2,19.6-5.3C83.2,8.6,90,7.8,96.8,7.5c7.1-0.3,14.2,0,21,1.8c5.1,1.4,9.8,3.7,14.3,6.5
			c9.1,5.7,16.6,13.4,24.4,20.8c7.8,7.4,16,14.7,25.6,19.6c12.3,6.2,26.1,7.7,39.1,11.5c10.3,2.9,21.2,8,27.3,17.2
			c7.4,11.1,4,24.5,0.8,36.4c-2.8,10.3-6.4,20.7-12.6,29.6c-2.8,4-6.3,7.6-10.4,10.3c-5.1,3.3-10.9,4.9-16.8,5.4
			c-6.8,0.6-13.6,0.3-20.4,0.6c-6.5,0.3-12.9,1.2-19.3,2.7c-12.7,2.9-24.9,8.2-35.8,15.3c-10.5,7-19.2,16.3-29.6,23.4
			c-5.2,3.6-10.8,6.4-16.9,8c-5.9,1.5-12.1,1.8-18.1,1.1c-5.8-0.7-11.5-2.6-16.7-5.4C50,210.6,47.5,214.9,50.3,216.4L50.3,216.4z"/>
	</g>
</g>
<g class="st0">
	<path class="st2" d="M171.2,97.9c-5.7,10.7-21.9,17.9-27.6,28.6c-4.2,7.9-8.7,25.8-5.7,34.1c5.1,14.3,18.9,13.9,28,20.1
		c11.8,8,24.9,14,38.6,17.7c4.5,1.2,9.3,2.2,13,5c3.9,2.9,6.4,7.3,9.4,11.1c7.1,8.8,18,14.4,29.3,14.9c11.3,0.5,22.7-4,30.6-12.1
		c11.7-12,15-30.3,26.2-42.8c12.1-13.3,30.8-17.5,47.9-23.1s35.2-15.5,39.7-32.8c4-15.6-4.7-31.8-15.5-43.8
		c-7.5-8.4-16.2-15.8-25.8-21.8c-10-6.4-20.9-11.3-32-15.4C309,31,289.8,26.5,270.3,24.4c-15.1-1.6-30.8-1.7-45.1,3.4
		c-14.1,5-25.9,14.8-37.5,24.3c-5.6,4.6-11.4,9.5-14.8,15.9C165.3,82.6,177.6,82.7,171.2,97.9"/>
	<g>
		<path class="st2" d="M169,96.6c-2.5,4.6-6.5,8.1-10.4,11.4c-4.2,3.5-8.6,6.8-12.4,10.9c-3.5,3.7-5.7,7.9-7.4,12.7
			c-1.9,5.1-3.1,10.5-3.9,15.9c-0.6,4.6-0.9,9.8,0.7,14.3c1.9,5,5.1,9.1,9.5,12c3.8,2.5,8.2,4,12.4,5.7c1.9,0.7,3.7,1.6,5.6,2.6
			c2.7,1.6,5.2,3.4,7.8,5c6,3.6,12.2,6.6,18.7,9.2c6.3,2.5,12.8,4.2,19.4,6.1c2.9,0.9,5.8,2,8.1,4.1c2.3,2.1,4.1,4.6,5.9,7.1
			c3.7,5.1,8.1,9.5,13.6,12.7c10.9,6.4,24.2,7.7,36.1,3.3c6-2.2,11.5-5.6,15.9-10.2c4.2-4.4,7.5-9.6,10.3-15
			c5.5-10.5,9.6-22.1,18.5-30.4c8.6-8.1,20.2-12.2,31.2-15.8c11.1-3.6,22.3-6.7,32.4-12.7c9.5-5.6,18-13.5,21.5-24.3
			c4-12.5-0.1-25.8-6.9-36.6c-7.2-11.4-17.3-21-28.1-28.9C356.2,47.2,343.3,41,330.1,36c-13.7-5.2-27.9-9-42.4-11.6
			c-14.1-2.5-28.6-4.3-42.9-3.1c-7.1,0.6-14.1,1.9-20.7,4.3c-6.4,2.3-12.3,5.5-18,9.3c-5.7,3.8-11,8-16.3,12.3
			c-5,4.1-10.2,8.1-14.5,13.1c-3.7,4.3-6.9,9.7-7.5,15.5c-0.3,3.5,1,6.6,2,9.9c0.2,0.8,0.4,1.6,0.6,2.4c-0.1-0.4,0.1,0.6,0.1,0.8
			c0,0.4,0,0.9,0,1.3c-0.1,2.3-0.9,4.8-1.8,7c-0.5,1.2,0.6,2.8,1.8,3.1c1.4,0.4,2.6-0.5,3.1-1.8c1.8-4.3,2.6-8.8,1.4-13.4
			c-0.4-1.5-1-3-1.5-4.5c-0.2-0.7-0.4-1.4-0.5-2.1c0,0-0.1-0.7-0.1-0.3c0.1,0.4,0-0.4,0-0.3c0-0.5-0.1-1,0-1.4
			c0.1-1.8,0.7-3.9,1.6-5.8c1.3-2.8,3-5.3,5-7.5c4.2-4.8,9.4-8.7,14.2-12.7c9.9-8.1,20.5-16.2,32.8-20.4c13-4.5,26.9-4.6,40.4-3.4
			c14.1,1.3,28.1,3.9,41.8,7.7c13.3,3.7,26.5,8.4,38.8,14.8c11.9,6.1,22.7,14,32.1,23.5c8.7,8.8,16.6,19.5,19,31.9
			c1.1,5.7,0.6,11.6-1.5,17c-1.8,4.7-4.9,8.8-8.5,12.2c-7.7,7.3-17.7,11.8-27.6,15.2c-11.2,3.8-22.8,6.7-33.4,12
			c-5.2,2.6-10.1,5.9-14.3,9.9c-4.2,4.1-7.6,9.1-10.4,14.2c-5.5,10-9.3,21.4-17.1,29.9c-8.1,8.7-20.2,13.2-32,11.9
			c-5.7-0.6-11.3-2.8-16.1-5.9c-2.4-1.6-4.6-3.4-6.7-5.5c-2.1-2.2-3.8-4.6-5.5-7c-1.9-2.6-3.8-5-6.4-6.9c-2.6-2-5.7-3.2-8.9-4.1
			c-6.3-1.9-12.6-3.4-18.7-5.8c-6.1-2.4-12.1-5.3-17.7-8.7c-2.7-1.6-5.3-3.4-8-5.1c-1.9-1.1-3.9-2-5.9-2.8c-4-1.6-7.9-2.9-11.6-5.1
			c-3.8-2.3-6.8-5.8-8.2-10.1c-1.3-4-0.9-8.8-0.2-13.1c0.8-5.1,2.1-10.1,4-15c1.6-4.1,4-7.6,7.2-10.8c3.8-3.7,8.1-6.9,12.2-10.4
			c3.8-3.2,7.5-6.8,9.9-11.3C174.9,96.3,170.6,93.8,169,96.6L169,96.6z"/>
	</g>
</g>
<g>
	<path class="st3" d="M82.2,120.9c0,3.6-1.3,6.7-3.9,9.2c-2.6,2.5-5.7,3.8-9.4,3.8c-2.1,0-4.7-0.7-7.7-2.2c-0.8-0.4-1.5-0.6-2.1-0.6
		c-0.9,0-1.5,0.6-1.9,1.8c-0.2,0.7-0.6,1.1-1,1.1s-0.7-0.2-0.7-0.7c0-0.3,0-0.7,0-1.1c0-1.2,0-3.1,0-5.5c0-0.2,0-0.9,0-2.2
		s0-2.2,0-2.6v-1c0-0.7,0.2-1,0.7-1c0.5,0,0.8,0.3,0.8,1c0.4,2.9,1.2,5.1,2.4,6.8c2.5,3.2,5.8,4.9,9.9,4.9c2.2,0,4-0.6,5.4-2
		c1.4-1.3,2.1-3,2.1-5.2c0-2.4-0.8-4.4-2.3-5.8c-0.9-0.8-1.7-1.4-2.4-1.7c-0.7-0.3-2.8-1.2-6.3-2.5c-6.9-2.6-10.3-6.5-10.3-11.7
		c0-3.5,1.2-6.4,3.5-8.8c2.3-2.4,5.2-3.5,8.7-3.5c1.2,0,3.1,0.4,5.5,1.1c0.6,0.2,1.2,0.3,1.7,0.3c1.3,0,2.1-0.6,2.4-1.9
		c0.2-0.6,0.5-0.9,0.8-0.9c0.4,0,0.7,0.2,0.7,0.7c0,0.1,0,0.2,0,0.6v3.9c-0.1,1.5,0.1,3.9,0.5,7.2v0.2c0,0.5-0.2,0.7-0.7,0.7
		c-0.4,0-0.8-0.9-1.4-2.8c-0.7-2.2-1.9-4.1-3.6-5.4c-1.7-1.4-3.7-2.1-5.9-2.1c-2.1,0-3.8,0.7-5.2,2c-1.4,1.3-2.1,2.9-2.1,4.9
		c0,3.1,2.1,5.5,6.2,7.1c6.4,2.6,10.5,4.7,12.3,6.3C81.1,115.2,82.2,117.8,82.2,120.9z"/>
	<path class="st3" d="M112.8,127.3c0,0.6-0.8,1.6-2.3,3c-2.7,2.4-5.8,3.6-9.5,3.6c-3.4,0-6-0.9-7.7-2.6c-1-1-1.5-3.9-1.5-8.7V94.9
		c-0.1-0.6-0.4-1-1-1h-3.5c-1.4,0-2.1-0.2-2.1-0.7s0.3-0.7,1-0.7c4.8-0.4,8.6-2.8,11.3-7.2c0.4-0.6,0.8-0.8,1.4-0.8
		c0.4,0,0.7,0.2,0.7,0.7v0.4c0,0.3,0,0.8,0,1.6c0,2.6,0.1,4.3,0.4,5c0.6,0.1,1.5,0.2,2.8,0.2c3.4,0,5.7-0.2,6.8-0.5
		c0.2-0.1,0.5-0.1,0.7-0.1c0.5,0,0.7,0.3,0.7,0.8c0,0.9-2.5,1.3-7.5,1.3c-0.9,0-2.1,0-3.8,0v17.2c0,8.7,0.2,14.1,0.7,16.3
		s1.9,3.3,4.3,3.3c2.1,0,4.3-1.1,6.9-3.4c0.2-0.3,0.5-0.5,0.8-0.5C112.6,126.8,112.8,127,112.8,127.3z"/>
	<path class="st3" d="M150.9,128.6c0,1.1-1.1,2.2-3.3,3.3s-4.3,1.7-6.3,1.7c-4.3,0-6.5-2.2-6.7-6.6c-2.3,4.6-6,6.9-10.9,6.9
		c-2.6,0-4.8-0.8-6.6-2.4c-1.7-1.6-2.6-3.6-2.6-6.1c0-5.1,3-9.1,9.1-12.1c2.1-1,5.7-2,10.9-3V108c0-5.5-0.3-9.1-0.8-10.8
		c-1-3.2-3.2-4.7-6.7-4.7c-2.2,0-4,0.6-5.4,1.8s-2.2,2.7-2.2,4.5c0,0.5,0.4,0.7,1.2,0.7s1.5,0.4,2.1,1.1c0.6,0.7,0.9,1.6,0.9,2.5
		c0,2.7-1.4,4.1-4.1,4.1c-1.4,0-2.6-0.5-3.5-1.4s-1.4-2.2-1.4-3.7c0-2.9,1.1-5.4,3.4-7.5c2.5-2.3,6.1-3.4,10.6-3.4
		c6.8,0,11,1.9,12.6,5.6c0.6,1.4,0.8,4.2,0.8,8.5v17.4c0,2.9,0,4.5,0.1,5c0.3,2.2,1.2,3.4,2.7,3.4c1.7,0,3.2-0.6,4.3-1.9
		c0.6-0.7,1.1-1,1.4-1C150.8,128,150.9,128.2,150.9,128.6z M134.6,118.7v-6.8c-4.6,1.1-7.9,2.4-9.9,4.1c-2,1.7-3,4-3,6.8
		c0,2,0.6,3.6,1.7,4.9c1.1,1.3,2.6,1.9,4.3,1.9c2.6,0,4.7-1.5,6.3-4.5C134.4,124.5,134.6,122.4,134.6,118.7z"/>
	<path class="st3" d="M179.3,97.6c0,1.4-0.4,2.6-1.3,3.5c-0.9,0.9-2,1.4-3.4,1.4c-1.1,0-2.1-0.3-2.8-1c-0.7-0.7-1.1-1.5-1.1-2.5
		c0-0.9,0.3-1.6,0.8-2.2s0.8-1.1,0.8-1.3c0-0.9-0.7-1.4-2.1-1.4c-1.7,0-3.2,1.1-4.5,3.2c-1.4,2.5-2.1,7.2-2.1,14.1v18.3
		c0,0.7,0.3,1.2,0.8,1.4s2.1,0.3,4.8,0.4c0.7,0.1,1,0.4,1,0.7c0,0.4-0.4,0.6-1.2,0.6c-1.4,0-2.8,0-4,0s-3.6,0-7.1,0
		c-1.8,0-3.1,0-3.9,0s-1.8,0-3.1,0c-1,0-1.5-0.2-1.5-0.6s0.4-0.6,1.2-0.6h1.3c2.1,0,3.4-0.2,3.7-0.8c0.1-0.2,0.2-1.4,0.2-3.5v-25.7
		c0-3.4-0.5-5.4-1.5-5.9s-2.6-0.8-4.9-0.9c-0.7,0-1.1-0.2-1.1-0.7s0.3-0.7,0.9-0.7h0.6c0.9,0,1.9,0.1,2.8,0.1s1.3,0.1,1.2,0.1
		c2.3,0,4.8-0.7,7.6-1.9l1.2-0.6l0.7-0.3c0.2,1.5,0.4,3,0.4,4.5v1.9c2-4.2,4.8-6.3,8.4-6.3c2,0,3.6,0.6,4.9,1.8
		C178.6,94.3,179.3,95.8,179.3,97.6z"/>
	<path class="st3" d="M226.7,132.1c0,0.4-1.1,0.6-3.4,0.6c-1.8,0-3.5,0-5-0.1c-3.2-0.1-5.3-0.2-6.5-0.2c-0.8,0-2,0.1-3.7,0.1
		s-2.9,0.1-3.7,0.1c-0.6,0-0.8-0.2-0.8-0.6c0-0.5,0.6-0.7,1.8-0.7c3,0,4.5-0.5,4.5-1.5c0-0.9-5.2-7.1-15.6-18.7v18.9
		c0.1,0.9,0.9,1.4,2.6,1.3h2.6c0.8,0,1.2,0.2,1.2,0.7c0,0.5-0.7,0.7-2.1,0.7c0.1,0,0,0-0.5,0c-0.4,0-1.2,0-2.2,0c-1.5,0-3.5,0-6,0
		h-7.2c-1.5,0-2.2-0.3-2.2-0.8c0-0.3,0.1-0.5,0.4-0.6c0.3-0.1,1.4-0.1,3.2-0.2c1.5-0.1,2.3-0.4,2.3-1c0.1-0.4,0.2-2,0.2-4.8V79.9
		c0-4.9,0-7.4-0.1-7.6c-0.1-0.4-1-0.7-2.7-0.7h-0.9c-0.4,0-0.9,0-1.5,0c-0.7,0-1-0.2-1-0.7c0-0.5,0.7-0.7,2.1-0.7
		c3-0.1,6.1-1,9.3-2.7c0.7-0.4,1.2-0.7,1.5-0.7c0.7,0,1,2.6,1,7.7v34.3c10-8.9,15.1-13.9,15.1-14.8c0-0.4-1.2-0.6-3.6-0.6
		c-0.1,0-0.2,0-0.6,0c-0.4,0-0.8,0-1.4,0h-0.9c-1.1,0-1.7-0.2-1.7-0.7c0-0.6,1-0.8,2.9-0.8h3.8h3.4h5.8c2.2,0,3.5,0,3.9,0.1
		c0.4,0.1,0.6,0.3,0.6,0.7c0,0.4-1.5,0.7-4.4,0.8c-2.1,0.1-3.4,0.2-3.8,0.5c-0.7,0.4-1.5,1-2.1,1.7l-11.7,11.3
		c8.6,9.4,14.7,16.4,18.3,20.8c1.5,1.8,2.7,2.9,3.5,3.3c0.7,0.3,2.2,0.4,4.6,0.4C226.4,131.4,226.7,131.6,226.7,132.1z"/>
	<path class="st3" d="M280.2,128.6c0,1.1-1.1,2.2-3.3,3.3c-2.2,1.1-4.3,1.7-6.3,1.7c-4.3,0-6.5-2.2-6.7-6.6c-2.3,4.6-6,6.9-10.9,6.9
		c-2.6,0-4.8-0.8-6.6-2.4s-2.6-3.6-2.6-6.1c0-5.1,3-9.1,9.1-12.1c2.1-1,5.7-2,10.9-3V108c0-5.5-0.3-9.1-0.8-10.8
		c-1-3.2-3.2-4.7-6.7-4.7c-2.2,0-4,0.6-5.4,1.8s-2.2,2.7-2.2,4.5c0,0.5,0.4,0.7,1.2,0.7s1.5,0.4,2.1,1.1c0.6,0.7,0.9,1.6,0.9,2.5
		c0,2.7-1.4,4.1-4.1,4.1c-1.4,0-2.6-0.5-3.5-1.4s-1.4-2.2-1.4-3.7c0-2.9,1.1-5.4,3.4-7.5c2.5-2.3,6.1-3.4,10.6-3.4
		c6.8,0,11,1.9,12.5,5.6c0.6,1.4,0.8,4.2,0.8,8.5v17.4c0,2.9,0,4.5,0.1,5c0.3,2.2,1.2,3.4,2.7,3.4c1.7,0,3.2-0.6,4.3-1.9
		c0.6-0.7,1.1-1,1.4-1C280,128,280.2,128.2,280.2,128.6z M263.8,118.7v-6.8c-4.6,1.1-7.9,2.4-9.9,4.1s-3,4-3,6.8
		c0,2,0.6,3.6,1.7,4.9s2.5,1.9,4.3,1.9c2.6,0,4.7-1.5,6.3-4.5C263.6,124.5,263.8,122.4,263.8,118.7z"/>
	<path class="st3" d="M308.6,97.6c0,1.4-0.4,2.6-1.3,3.5s-2,1.4-3.4,1.4c-1.1,0-2-0.3-2.8-1c-0.7-0.7-1.1-1.5-1.1-2.5
		c0-0.9,0.3-1.6,0.8-2.2s0.8-1.1,0.8-1.3c0-0.9-0.7-1.4-2-1.4c-1.7,0-3.2,1.1-4.5,3.2c-1.4,2.5-2.1,7.2-2.1,14.1v18.3
		c0,0.7,0.3,1.2,0.8,1.4s2.1,0.3,4.8,0.4c0.7,0.1,1,0.4,1,0.7c0,0.4-0.4,0.6-1.2,0.6c-1.4,0-2.8,0-4,0s-3.6,0-7.1,0
		c-1.8,0-3.1,0-3.9,0s-1.8,0-3.1,0c-1,0-1.5-0.2-1.5-0.6s0.4-0.6,1.2-0.6h1.3c2.1,0,3.4-0.2,3.7-0.8c0.1-0.2,0.2-1.4,0.2-3.5v-25.7
		c0-3.4-0.5-5.4-1.5-5.9s-2.6-0.8-4.9-0.9c-0.7,0-1.1-0.2-1.1-0.7s0.3-0.7,0.9-0.7h0.6c0.9,0,1.9,0.1,2.8,0.1
		c0.9,0.1,1.3,0.1,1.2,0.1c2.3,0,4.8-0.7,7.6-1.9l1.2-0.6l0.7-0.3c0.2,1.5,0.4,3,0.4,4.5v1.9c2-4.2,4.8-6.3,8.4-6.3
		c2,0,3.6,0.6,4.9,1.8C307.9,94.3,308.6,95.8,308.6,97.6z"/>
	<path class="st3" d="M336.8,127.3c0,0.6-0.8,1.6-2.3,3c-2.7,2.4-5.8,3.6-9.5,3.6c-3.4,0-6-0.9-7.7-2.6c-1-1-1.5-3.9-1.5-8.7V94.9
		c-0.1-0.6-0.4-1-1-1h-3.5c-1.4,0-2-0.2-2-0.7s0.3-0.7,1-0.7c4.8-0.4,8.6-2.8,11.3-7.2c0.4-0.6,0.8-0.8,1.4-0.8
		c0.4,0,0.6,0.2,0.6,0.7v0.4c0,0.3,0,0.8,0,1.6c0,2.6,0.1,4.3,0.4,5c0.6,0.1,1.5,0.2,2.8,0.2c3.4,0,5.7-0.2,6.8-0.5
		c0.2-0.1,0.5-0.1,0.6-0.1c0.5,0,0.7,0.3,0.7,0.8c0,0.9-2.5,1.3-7.5,1.3c-0.9,0-2.1,0-3.8,0v17.2c0,8.7,0.2,14.1,0.6,16.3
		s1.9,3.3,4.3,3.3c2,0,4.3-1.1,6.9-3.4c0.2-0.3,0.5-0.5,0.8-0.5C336.6,126.8,336.8,127,336.8,127.3z"/>
</g>
</svg>
