<?xml version="1.0" encoding="utf-8"?>
<!-- Generator: Adobe Illustrator 25.4.1, SVG Export Plug-In . SVG Version: 6.00 Build 0)  -->
<svg version="1.1" id="Layer_1" xmlns="http://www.w3.org/2000/svg" xmlns:xlink="http://www.w3.org/1999/xlink" x="0px" y="0px"
	 viewBox="0 0 320.1 84.4" style="enable-background:new 0 0 320.1 84.4;" xml:space="preserve">
<style type="text/css">
	.st0{fill:none;stroke:#3F3B3C;stroke-miterlimit:10;}
	.st1{fill:#CBCDCF;}
	.st2{fill:none;stroke:#FFFFFF;stroke-miterlimit:10;}
	.st3{fill:#FFFFFF;}
</style>
<g>
	<g>
		<path class="st0" d="M439.2-21"/>
	</g>
</g>
<g>
	<g>
		<g>
			<path class="st1" d="M187.3,33.8c1.9,0,3.9,0.1,5.8,0.1c-33-2.3-68-1.9-99.1-4.4c-1.9-0.3-5.8-1-7.8-1.4
				c-15.6-1.1-35-0.7-50.6,0.1C27.8,28.5,22,32.3,22,32.3c-1.9,0.7-3.9,2.1-1.9,2.7c3.9,0.3,13.6,0.3,13.6,1.6
				c0,0.3-1.9,0.4-3.9,0.4c0,1.4-5.8,4.1-7.7,4.1c-1.9,0.7-13.6,2.8-15.5,3.5c-5.8,1.1,11.7,6.1,19.5,7c3.9,0.7,0,1.7,0,2.7
				c3.9-0.4,5.8,0.7,9.7,0.3c0,0.2,2.9,0.3,6.5,0.4c3.6,0.1,8,0.2,10.9,0.2c0,0,1.9-0.4,7.7-0.4c1.9,0,1.9-0.3,1.9-0.7
				c0,0.3,0,0.3,0,0.7c1.9-0.7,5.8,0,7.8-0.4c0,0.3,0,0.3,0,0.7c3.9-0.7,7.7,0,11.6-0.3c0,0.3,0,0.3,0,0.7c1.9,0,3.9,0,3.9,0.3
				c0,0.3,0,0.3,0,0.7c1.9,0.3,5.8-0.3,5.8,0.4c0-0.3,0-0.3,0-0.7c7.8,0,13.6,0.4,19.4,0.8c15.5,1.4,34.9,0.9,52.3,0.5
				c1.9,0,3.9-0.6,2-1.3c1.9,0,3.9,0,5.8,0.1c3.9,0.1,2-1,5.8-0.9c31-1.3,62,1.1,93.1,0.9c-7.7-0.5-13.5-1.4-21.3-1.2
				c0-0.3,0-1-1.9-1.1c-11.6-0.6-25.2-0.2-31-1.7c-1.9-0.4-3.8-1.4-9.7-1.6c1.9,0,3.9,0.1,5.8,0.1c0-0.3,0-1,0-1
				c-7.8-0.5-17.5-1-25.2-1.5c0,0,0-0.7,0-1l-3.9-0.1c-3.8-2.5,17.5-1.8,27.2-1.9c0-0.3,0-1,0-1.4l-3.9-0.1l0-0.7
				c11.7,0.2,21.4,0.4,33,0.7c-1.9,0-5.8-0.1-7.8-0.2c0-0.3,0-0.7-1.9-0.7c7.8,0.2,17.5,0.7,25.2,0.2c1.9-0.3,0-1.4-5.8-1.8
				c-5.8-0.1-9.7-0.2-15.5-0.4l0-0.7c3.9,0.1,9.7,0.6,13.6,0.3c2-0.3-3.9-1.1-1.9-1.4c1.9,0,3.9,0.1,5.8-0.2
				c-5.8-0.1-13.6,0-19.4-0.5c-1.9-0.4-3.9-0.8-3.9-1.5c-9.7,0.1-17.5-1-23.3-2.9C202.8,33.7,193.1,33.9,187.3,33.8z"/>
		</g>
	</g>
</g>
<g>
	<g>
		<g>
			<path class="st1" d="M82,29.9c-1.9,0-3.8,0-5.7,0c16.2,0.9,32.8,1.2,49,2c16.3,0.7,32.1,2.1,47.2,4.3c1.9,0.5,5.6,1.4,7.5,1.9
				c15.1,2.1,34.4,3,50.1,2.8c3.9-0.1,7.3-1,9.8-2c2.5-1,3.9-1.9,3.9-1.9c2-0.7,3.9-2.1,2-2.7c-1.9-0.2-5.3-0.3-8.2-0.5
				c-2.9-0.3-5.3-0.7-5.3-1.4c0-0.3,1.9-0.3,3.9-0.2c0-1.3,5.8-4,7.7-4c1-0.3,4.3-1,7.6-1.7c3.3-0.7,6.6-1.5,7.6-1.9
				c2.8-0.6-0.1-2-4.6-3.5c-4.5-1.4-10.6-3-14.3-3.6c-3.7-0.7,0-1.7,0-2.7c-3.7,0.3-5.6-0.8-9.3-0.5c0-0.2-2.8-0.4-6.3-0.7
				c-3.5-0.3-7.7-0.5-10.5-0.7c0,0-0.5,0.1-1.7,0.1c-1.2,0-3.1,0-5.9-0.2c-1.9-0.1-1.9,0.2-1.9,0.6c0-0.3,0-0.3,0-0.7
				c-1.9,0.6-5.7-0.4-7.6-0.1c0-0.3,0-0.3,0-0.7c-3.8,0.4-7.6-0.5-11.4-0.4c0-0.3,0-0.3,0-0.7c-1.9-0.1-3.8-0.3-3.8-0.6
				c0-0.3,0-0.3,0-0.7c-1.9-0.5-5.7,0-5.7-0.7c0,0.3,0,0.3,0,0.7c-7.6-0.5-13.4-1.2-19.1-1.9c-7.6-1.1-16.4-1.7-25.3-1.9
				c-9-0.2-18.1,0-26.8,0.2c-1.9,0-3.8,0.6-1.9,1.3c-1.9,0-3.8,0-5.8,0c-3.8,0-1.9,1-5.8,1C76.2,8.9,61,8.9,45.7,8.8
				C30.5,8.8,15.2,8.6,0,9.1c7.6,0.3,13.3,1,21,0.7c0,0.3,0,1,1.9,1c11.4,0.3,24.8-0.4,30.5,1c1.9,0.3,3.8,1.4,9.5,1.4
				c-1.9,0-3.8,0-5.7,0c0,0.3,0,1,0,1c7.6,0.3,17.2,0.7,24.8,1c0,0,0,0.7,0,1l3.8,0c3.8,2.4-17.2,2-26.7,2.4c0,0.3,0,1,0,1.4l3.8,0
				l0,0.7c-11.4,0-21,0-32.4,0c1.9,0,5.7,0,7.6,0c0,0.3,0,0.7,1.9,0.7c-7.6,0-17.2-0.3-24.8,0.4c-1.9,0.3,0,1.4,5.7,1.7
				c5.7,0,9.5,0,15.3,0l0,0.7c-3.8,0-9.5-0.3-13.3,0c-1.9,0.3,3.8,1,1.9,1.4c-1.9,0-3.8,0-5.7,0.3c5.7,0,13.4-0.3,19.1,0
				c1.9,0.3,3.8,0.7,3.8,1.4c9.5-0.3,17.2,0.7,22.9,2.4C66.7,30.3,76.3,29.9,82,29.9z"/>
		</g>
	</g>
</g>
<g>
	<g>
		<g>
			<path class="st1" d="M199.2,53c1.9,0.1,3.7,0.1,5.6,0.2c-15.9-1.5-32.2-1.8-48.1-2.1c-15.9-0.3-31.6-0.7-46.3-1.9
				c-1.8-0.3-5.5-1-7.4-1.4c-14.7-1-33.2-0.6-47.9,0.1c-7.4,0.4-12.9,4.1-12.9,4.1c-1.8,0.7-3.7,2.1-1.8,2.7
				c3.7,0.3,12.9,0.3,12.9,1.7c0,0.3-1.8,0.3-3.7,0.3c0,1.4-5.5,4.1-7.4,4.1c-1.8,0.7-12.9,2.8-14.7,3.4c-5.5,1,11.1,6.1,18.4,7.1
				c3.7,0.7,0,1.7,0,2.7c3.7-0.3,5.5,0.7,9.2,0.3c0,0.3,11.1,0.7,16.6,0.7c0,0,1.8-0.3,7.4-0.4c1.8,0,1.8-0.3,1.8-0.7
				c0,0.3,0,0.3,0,0.7c1.8-0.7,5.5,0,7.4-0.4c0,0.3,0,0.3,0,0.7c3.7-0.7,7.4,0,11.1-0.4c0,0.3,0,0.3,0,0.7c1.8,0,3.7,0,3.7,0.3
				c0,0.3,0,0.3,0,0.7c1.8,0.3,5.5-0.4,5.5,0.3c0-0.3,0-0.3,0-0.7c7.4,0,12.9,0.3,18.4,0.7c14.7,1.4,33.2,0.6,49.6,0
				c1.8,0,3.6-0.7,1.8-1.4c1.8,0,3.6,0,5.5,0.1c3.6,0.1,1.8-1,5.5-0.9c7.3-0.3,14.5-0.3,21.7,0c7.2,0.3,14.5,0.8,22,1.3
				c7.5,0.5,15.1,0.9,22.9,0.8c7.8-0.1,15.7-0.7,23.6-2.2c-8,0.8-13.9,0.6-21.7,1.1c0-0.3,0-1-1.9-1c-11.6-0.2-24.7-0.5-30.1-2.2
				c-1.8-0.5-3.6-1.6-9.1-1.9c1.8,0.1,3.7,0.2,5.5,0.3c0-0.3,0.1-1,0.1-1c-7.3-0.8-16.4-1.7-23.7-2.2c0,0,0-0.7,0-1l-3.7-0.1
				c-1.8-1.2,2.3-1.7,8.1-1.7c5.8-0.1,13.1,0.4,17.7,0.5c0-0.3,0.1-1,0.1-1.4l-3.7-0.2l0-0.7c11,0.7,20.2,1.4,31.3,1.7
				c-1.8,0-5.5-0.2-7.4-0.2c0-0.3,0-0.7-1.8-0.8c7.3,0.4,16.5,0.9,23.8-0.2c1.8-0.5-0.1-1.3-5.5-1.5c-5.4,0.1-9.1,0-14.6-0.2l0-0.7
				c3.6,0.2,9.1,0.6,12.7,0.2c1.8-0.4-3.6-1-1.8-1.4c1.8,0,3.6,0,5.4-0.4c-5.4,0.2-12.6,0.4-18-0.2c-1.8-0.4-3.6-0.9-3.6-1.5
				c-9.1-0.2-16.4-1.7-21.9-3.7C214.2,53.2,204.8,53.1,199.2,53z"/>
		</g>
	</g>
</g>
<g>
	<g>
		<g>
			<path class="st1" d="M268.5,35.9c1.1,0,2.2,0,3.2,0c-18.3-1.7-37.8-1-55-3.4c-1.1-0.3-3.2-1-4.3-1.4c-8.6-1-19.4-0.7-28.1,0
				c-4.3,0.3-7.6,4.1-7.6,4.1c-1.1,0.7-2.2,2-1.1,2.7c2.2,0.3,7.6,0.3,7.6,1.7c0,0.3-1.1,0.3-2.2,0.3c0,1.4-3.2,4.1-4.3,4.1
				c-1.1,0.7-7.6,2.7-8.6,3.4c-3.2,1,6.5,6.2,10.8,7.2c2.2,0.7,0,1.7,0,2.7c2.2-0.3,3.2,0.7,5.4,0.3c0,0.3,6.5,0.7,9.7,0.7
				c0,0,1.1-0.3,4.3-0.3c1.1,0,1.1-0.3,1.1-0.7c0,0.3,0,0.3,0,0.7c1.1-0.7,3.2,0,4.3-0.3c0,0.3,0,0.3,0,0.7c2.2-0.7,4.3,0,6.5-0.3
				c0,0.3,0,0.3,0,0.7c1.1,0,2.2,0,2.2,0.3c0,0.3,0,0.3,0,0.7c1.1,0.3,3.2-0.3,3.2,0.3c0-0.3,0-0.3,0-0.7c4.3,0,7.6,0.3,10.8,0.7
				c8.6,1.4,19.4,0.7,29.1,0c1.1,0,2.2-0.7,1.1-1.4c1.1,0,2.2,0,3.2,0c2.2,0,1.1-1,3.2-1c17.3-1.7,34.5,0,51.8-1
				c-4.3-0.3-7.6-1-11.9-0.7c0-0.3,0-1-1.1-1c-6.5-0.3-14,0.3-17.3-1c-1.1-0.3-2.2-1.4-5.4-1.4c1.1,0,2.2,0,3.2,0c0-0.3,0-1,0-1
				c-4.3-0.3-9.7-0.7-14-1c0,0,0-0.7,0-1h-2.2c-2.2-2.4,9.7-2.1,15.1-2.4c0-0.3,0-1,0-1.4h-2.2v-0.7c6.5,0,11.9,0,18.3,0
				c-1.1,0-3.2,0-4.3,0c0-0.3,0-0.7-1.1-0.7c4.3,0,9.7,0.3,14-0.3c1.1-0.3,0-1.4-3.2-1.7c-3.2,0-5.4,0-8.6,0v-0.7
				c2.2,0,5.4,0.3,7.6,0c1.1-0.3-2.2-1-1.1-1.4c1.1,0,2.2,0,3.2-0.3c-3.2,0-7.6,0.3-10.8,0c-1.1-0.3-2.2-0.7-2.2-1.4
				c-5.4,0.3-9.7-0.7-12.9-2.4C277.1,35.5,271.7,35.9,268.5,35.9z"/>
		</g>
	</g>
</g>
<g>
	<g>
		<path class="st2" d="M271.8,44.5"/>
	</g>
</g>
<g>
	<path class="st3" d="M35.5,54.1c0,3.6-1.3,6.7-3.9,9.2c-2.6,2.5-5.7,3.8-9.4,3.8c-2.1,0-4.7-0.7-7.7-2.2c-0.8-0.4-1.5-0.6-2.1-0.6
		c-0.9,0-1.5,0.6-1.9,1.8c-0.2,0.7-0.6,1.1-1,1.1S8.8,67,8.8,66.5c0-0.3,0-0.7,0-1.1c0-1.2,0-3.1,0-5.5c0-0.2,0-0.9,0-2.2
		s0-2.2,0-2.6v-1c0-0.7,0.2-1,0.7-1s0.8,0.3,0.8,1c0.4,2.9,1.2,5.1,2.4,6.8c2.5,3.2,5.8,4.9,9.9,4.9c2.2,0,4-0.6,5.4-2
		c1.4-1.3,2.1-3,2.1-5.2c0-2.4-0.8-4.4-2.3-5.8c-0.9-0.8-1.7-1.4-2.4-1.7c-0.7-0.3-2.8-1.2-6.3-2.5C12.2,46,8.8,42.1,8.8,36.9
		c0-3.5,1.2-6.4,3.5-8.8s5.2-3.5,8.7-3.5c1.2,0,3.1,0.4,5.5,1.1c0.6,0.2,1.2,0.3,1.7,0.3c1.3,0,2.1-0.6,2.4-1.9
		c0.2-0.6,0.5-0.9,0.8-0.9c0.4,0,0.7,0.2,0.7,0.7c0,0.1,0,0.2,0,0.6v3.9c-0.1,1.5,0.1,3.9,0.5,7.2v0.2c0,0.5-0.2,0.7-0.7,0.7
		c-0.4,0-0.8-0.9-1.4-2.8c-0.7-2.2-1.9-4.1-3.6-5.4c-1.7-1.4-3.7-2.1-5.9-2.1c-2.1,0-3.8,0.7-5.2,2s-2.1,2.9-2.1,4.9
		c0,3.1,2.1,5.5,6.2,7.1c6.4,2.6,10.5,4.7,12.3,6.3C34.4,48.4,35.5,51,35.5,54.1z"/>
	<path class="st3" d="M66.1,60.5c0,0.6-0.8,1.6-2.3,3c-2.7,2.4-5.8,3.6-9.5,3.6c-3.4,0-6-0.9-7.7-2.6c-1-1-1.5-3.9-1.5-8.7V28.1
		c-0.1-0.6-0.4-1-1-1h-3.5c-1.4,0-2.1-0.2-2.1-0.7s0.3-0.7,1-0.7c4.8-0.4,8.6-2.8,11.3-7.2c0.4-0.6,0.8-0.8,1.4-0.8
		c0.4,0,0.7,0.2,0.7,0.7v0.4c0,0.3,0,0.8,0,1.6c0,2.6,0.1,4.3,0.4,5c0.6,0.1,1.5,0.2,2.8,0.2c3.4,0,5.7-0.2,6.8-0.5
		c0.2-0.1,0.5-0.1,0.7-0.1c0.5,0,0.7,0.3,0.7,0.8c0,0.9-2.5,1.3-7.5,1.3c-0.9,0-2.1,0-3.8,0v17.2c0,8.7,0.2,14.1,0.7,16.3
		c0.5,2.2,1.9,3.3,4.3,3.3c2.1,0,4.3-1.1,6.9-3.4c0.2-0.3,0.5-0.5,0.8-0.5C65.9,60,66.1,60.2,66.1,60.5z"/>
	<path class="st3" d="M104.2,61.8c0,1.1-1.1,2.2-3.3,3.3s-4.3,1.7-6.3,1.7c-4.3,0-6.5-2.2-6.7-6.6c-2.3,4.6-6,6.9-10.9,6.9
		c-2.6,0-4.8-0.8-6.6-2.4c-1.7-1.6-2.6-3.6-2.6-6.1c0-5.1,3-9.1,9.1-12.1c2.1-1,5.7-2,10.9-3v-2.3c0-5.5-0.3-9.1-0.8-10.8
		c-1-3.2-3.2-4.7-6.7-4.7c-2.2,0-4,0.6-5.4,1.8c-1.4,1.2-2.2,2.7-2.2,4.5c0,0.5,0.4,0.7,1.2,0.7s1.5,0.4,2.1,1.1s0.9,1.6,0.9,2.5
		c0,2.7-1.4,4.1-4.1,4.1c-1.4,0-2.6-0.5-3.5-1.4s-1.4-2.2-1.4-3.7c0-2.9,1.1-5.4,3.4-7.5c2.5-2.3,6.1-3.4,10.6-3.4
		c6.8,0,11,1.9,12.6,5.6c0.6,1.4,0.8,4.2,0.8,8.5v17.4c0,2.9,0,4.5,0.1,5c0.3,2.2,1.2,3.4,2.7,3.4c1.7,0,3.2-0.6,4.3-1.9
		c0.6-0.7,1.1-1,1.4-1C104.1,61.2,104.2,61.4,104.2,61.8z M87.9,51.9v-6.8c-4.6,1.1-7.9,2.4-9.9,4.1s-3,4-3,6.8c0,2,0.6,3.6,1.7,4.9
		c1.1,1.3,2.6,1.9,4.3,1.9c2.6,0,4.7-1.5,6.3-4.5C87.7,57.7,87.9,55.6,87.9,51.9z"/>
	<path class="st3" d="M132.6,30.8c0,1.4-0.4,2.6-1.3,3.5c-0.9,0.9-2,1.4-3.4,1.4c-1.1,0-2.1-0.3-2.8-1s-1.1-1.5-1.1-2.5
		c0-0.9,0.3-1.6,0.8-2.2s0.8-1.1,0.8-1.3c0-0.9-0.7-1.4-2.1-1.4c-1.7,0-3.2,1.1-4.5,3.2c-1.4,2.5-2.1,7.2-2.1,14.1v18.3
		c0,0.7,0.3,1.2,0.8,1.4s2.1,0.3,4.8,0.4c0.7,0.1,1,0.4,1,0.7c0,0.4-0.4,0.6-1.2,0.6c-1.4,0-2.8,0-4,0s-3.6,0-7.1,0
		c-1.8,0-3.1,0-3.9,0s-1.8,0-3.1,0c-1,0-1.5-0.2-1.5-0.6s0.4-0.6,1.2-0.6h1.3c2.1,0,3.4-0.2,3.7-0.8c0.1-0.2,0.2-1.4,0.2-3.5V34.8
		c0-3.4-0.5-5.4-1.5-5.9s-2.6-0.8-4.9-0.9c-0.7,0-1.1-0.2-1.1-0.7s0.3-0.7,0.9-0.7h0.6c0.9,0,1.9,0.1,2.8,0.1s1.3,0.1,1.2,0.1
		c2.3,0,4.8-0.7,7.6-1.9l1.2-0.6l0.7-0.3c0.2,1.5,0.4,3,0.4,4.5v1.9c2-4.2,4.8-6.3,8.4-6.3c2,0,3.6,0.6,4.9,1.8
		C131.9,27.5,132.6,29,132.6,30.8z"/>
	<path class="st3" d="M180,65.3c0,0.4-1.1,0.6-3.4,0.6c-1.8,0-3.5,0-5-0.1c-3.2-0.1-5.3-0.2-6.5-0.2c-0.8,0-2,0.1-3.7,0.1
		s-2.9,0.1-3.7,0.1c-0.6,0-0.8-0.2-0.8-0.6c0-0.5,0.6-0.7,1.8-0.7c3,0,4.5-0.5,4.5-1.5c0-0.9-5.2-7.1-15.6-18.7v18.9
		c0.1,0.9,0.9,1.4,2.6,1.3h2.6c0.8,0,1.2,0.2,1.2,0.7s-0.7,0.7-2.1,0.7c0.1,0,0,0-0.5,0c-0.4,0-1.2,0-2.2,0c-1.5,0-3.5,0-6,0H136
		c-1.5,0-2.2-0.3-2.2-0.8c0-0.3,0.1-0.5,0.4-0.6c0.3-0.1,1.4-0.1,3.2-0.2c1.5-0.1,2.3-0.4,2.3-1c0.1-0.4,0.2-2,0.2-4.8V13.1
		c0-4.9,0-7.4-0.1-7.6c-0.1-0.4-1-0.7-2.7-0.7h-0.9c-0.4,0-0.9,0-1.5,0c-0.7,0-1-0.2-1-0.7s0.7-0.7,2.1-0.7c3-0.1,6.1-1,9.3-2.7
		c0.7-0.4,1.2-0.7,1.5-0.7c0.7,0,1,2.6,1,7.7V42c10-8.9,15.1-13.9,15.1-14.8c0-0.4-1.2-0.6-3.6-0.6c-0.1,0-0.2,0-0.6,0s-0.8,0-1.4,0
		h-0.9c-1.1,0-1.7-0.2-1.7-0.7c0-0.6,1-0.8,2.9-0.8h3.8h3.4h5.8c2.2,0,3.5,0,3.9,0.1s0.6,0.3,0.6,0.7c0,0.4-1.5,0.7-4.4,0.8
		c-2.1,0.1-3.4,0.2-3.8,0.5c-0.7,0.4-1.5,1-2.1,1.7l-11.7,11.3c8.6,9.4,14.7,16.4,18.3,20.8c1.5,1.8,2.7,2.9,3.5,3.3
		c0.7,0.3,2.2,0.4,4.6,0.4C179.7,64.6,180,64.8,180,65.3z"/>
	<path class="st3" d="M233.5,61.8c0,1.1-1.1,2.2-3.3,3.3c-2.2,1.1-4.3,1.7-6.3,1.7c-4.3,0-6.5-2.2-6.7-6.6c-2.3,4.6-6,6.9-10.9,6.9
		c-2.6,0-4.8-0.8-6.6-2.4c-1.8-1.6-2.6-3.6-2.6-6.1c0-5.1,3-9.1,9.1-12.1c2.1-1,5.7-2,10.9-3v-2.3c0-5.5-0.3-9.1-0.8-10.8
		c-1-3.2-3.2-4.7-6.7-4.7c-2.2,0-4,0.6-5.4,1.8S202,30.2,202,32c0,0.5,0.4,0.7,1.2,0.7c0.8,0,1.5,0.4,2.1,1.1s0.9,1.6,0.9,2.5
		c0,2.7-1.4,4.1-4.1,4.1c-1.4,0-2.6-0.5-3.5-1.4s-1.4-2.2-1.4-3.7c0-2.9,1.1-5.4,3.4-7.5c2.5-2.3,6.1-3.4,10.6-3.4
		c6.8,0,11,1.9,12.5,5.6c0.6,1.4,0.8,4.2,0.8,8.5v17.4c0,2.9,0,4.5,0.1,5c0.3,2.2,1.2,3.4,2.7,3.4c1.7,0,3.2-0.6,4.3-1.9
		c0.6-0.7,1.1-1,1.4-1C233.3,61.2,233.5,61.4,233.5,61.8z M217.1,51.9v-6.8c-4.6,1.1-7.9,2.4-9.9,4.1s-3,4-3,6.8
		c0,2,0.6,3.6,1.7,4.9s2.5,1.9,4.3,1.9c2.6,0,4.7-1.5,6.3-4.5C216.9,57.7,217.1,55.6,217.1,51.9z"/>
	<path class="st3" d="M261.9,30.8c0,1.4-0.4,2.6-1.3,3.5s-2,1.4-3.4,1.4c-1.1,0-2-0.3-2.8-1c-0.7-0.7-1.1-1.5-1.1-2.5
		c0-0.9,0.3-1.6,0.8-2.2s0.8-1.1,0.8-1.3c0-0.9-0.7-1.4-2-1.4c-1.7,0-3.2,1.1-4.5,3.2c-1.4,2.5-2.1,7.2-2.1,14.1v18.3
		c0,0.7,0.3,1.2,0.8,1.4s2.1,0.3,4.8,0.4c0.7,0.1,1,0.4,1,0.7c0,0.4-0.4,0.6-1.2,0.6c-1.4,0-2.8,0-4,0s-3.6,0-7.1,0
		c-1.8,0-3.1,0-3.9,0s-1.8,0-3.1,0c-1,0-1.5-0.2-1.5-0.6s0.4-0.6,1.2-0.6h1.3c2.1,0,3.4-0.2,3.7-0.8c0.1-0.2,0.2-1.4,0.2-3.5V34.8
		c0-3.4-0.5-5.4-1.5-5.9s-2.6-0.8-4.9-0.9c-0.7,0-1.1-0.2-1.1-0.7s0.3-0.7,0.9-0.7h0.6c0.9,0,1.9,0.1,2.8,0.1
		c0.9,0.1,1.3,0.1,1.2,0.1c2.3,0,4.8-0.7,7.6-1.9l1.2-0.6L246,24c0.2,1.5,0.4,3,0.4,4.5v1.9c2-4.2,4.8-6.3,8.4-6.3
		c2,0,3.6,0.6,4.9,1.8C261.2,27.5,261.9,29,261.9,30.8z"/>
	<path class="st3" d="M290.1,60.5c0,0.6-0.8,1.6-2.3,3c-2.7,2.4-5.8,3.6-9.5,3.6c-3.4,0-6-0.9-7.7-2.6c-1-1-1.5-3.9-1.5-8.7V28.1
		c-0.1-0.6-0.4-1-1-1h-3.5c-1.4,0-2-0.2-2-0.7s0.3-0.7,1-0.7c4.8-0.4,8.6-2.8,11.3-7.2c0.4-0.6,0.8-0.8,1.4-0.8
		c0.4,0,0.6,0.2,0.6,0.7v0.4c0,0.3,0,0.8,0,1.6c0,2.6,0.1,4.3,0.4,5c0.6,0.1,1.5,0.2,2.8,0.2c3.4,0,5.7-0.2,6.8-0.5
		c0.2-0.1,0.5-0.1,0.6-0.1c0.5,0,0.7,0.3,0.7,0.8c0,0.9-2.5,1.3-7.5,1.3c-0.9,0-2.1,0-3.8,0v17.2c0,8.7,0.2,14.1,0.6,16.3
		c0.4,2.2,1.9,3.3,4.3,3.3c2,0,4.3-1.1,6.9-3.4c0.2-0.3,0.5-0.5,0.8-0.5C289.9,60,290.1,60.2,290.1,60.5z"/>
</g>
</svg>
